<svg width="49" height="49" viewBox="0 0 49 49" fill="none" xmlns="http://www.w3.org/2000/svg">
<path d="M18.4817 33.0004L24.3317 29.4504L30.1817 33.0004L28.6317 26.3504L33.8317 21.8504L26.9817 21.3004L24.3317 15.0004L21.6817 21.3004L14.8317 21.8504L20.0317 26.3504L18.4817 33.0004ZM24.3317 47.1004L17.6317 40.5004H8.33169V31.2004L1.73169 24.5004L8.33169 17.8004V8.50039H17.6317L24.3317 1.90039L31.0317 8.50039H40.3317V17.8004L46.9317 24.5004L40.3317 31.2004V40.5004H31.0317L24.3317 47.1004ZM24.3317 41.5004L29.3317 36.5004H36.3317V29.5004L41.3317 24.5004L36.3317 19.5004V12.5004H29.3317L24.3317 7.50039L19.3317 12.5004H12.3317V19.5004L7.33169 24.5004L12.3317 29.5004V36.5004H19.3317L24.3317 41.5004Z" fill="#38BDF8"/>
</svg>
