<svg width="48" height="49" viewBox="0 0 48 49" fill="none" xmlns="http://www.w3.org/2000/svg">
<rect y="0.5" width="48" height="48" rx="24" fill="#38BDF8"/>
<path d="M15.12 30.5V18.98H19.776C19.888 18.98 20.0267 18.9853 20.192 18.996C20.3573 19.0013 20.5147 19.0173 20.664 19.044C21.304 19.1453 21.8373 19.364 22.264 19.7C22.696 20.036 23.0187 20.46 23.232 20.972C23.4453 21.484 23.552 22.0493 23.552 22.668C23.552 23.292 23.4453 23.86 23.232 24.372C23.0187 24.884 22.696 25.308 22.264 25.644C21.8373 25.98 21.304 26.1987 20.664 26.3C20.5147 26.3213 20.3547 26.3373 20.184 26.348C20.0187 26.3587 19.8827 26.364 19.776 26.364H16.792V30.5H15.12ZM16.792 24.78H19.712C19.8187 24.78 19.936 24.7747 20.064 24.764C20.1973 24.7533 20.3227 24.7347 20.44 24.708C20.7813 24.628 21.056 24.4813 21.264 24.268C21.472 24.0493 21.6213 23.7987 21.712 23.516C21.8027 23.2333 21.848 22.9507 21.848 22.668C21.848 22.3853 21.8027 22.1053 21.712 21.828C21.6213 21.5453 21.472 21.2973 21.264 21.084C21.056 20.8653 20.7813 20.716 20.44 20.636C20.3227 20.604 20.1973 20.5827 20.064 20.572C19.936 20.5613 19.8187 20.556 19.712 20.556H16.792V24.78ZM28.1753 32.092V30.22H29.8473V32.092H28.1753ZM28.1753 19.268V17.388H29.8473V19.268H28.1753ZM29.0953 30.74C28.2953 30.74 27.5806 30.596 26.9513 30.308C26.3219 30.02 25.8046 29.612 25.3993 29.084C24.9993 28.5507 24.7379 27.9213 24.6153 27.196L26.2713 26.932C26.4313 27.6147 26.7726 28.1587 27.2953 28.564C27.8179 28.964 28.4446 29.164 29.1753 29.164C29.9006 29.164 30.4899 28.9907 30.9433 28.644C31.4019 28.2973 31.6313 27.8547 31.6313 27.316C31.6313 26.932 31.5139 26.62 31.2793 26.38C31.0499 26.14 30.6739 25.9373 30.1513 25.772L27.4473 24.94C25.8473 24.444 25.0473 23.484 25.0473 22.06C25.0473 21.388 25.2073 20.804 25.5273 20.308C25.8526 19.812 26.3086 19.428 26.8953 19.156C27.4819 18.884 28.1673 18.748 28.9513 18.748C29.7033 18.7587 30.3699 18.8973 30.9513 19.164C31.5379 19.4307 32.0233 19.8147 32.4073 20.316C32.7966 20.8173 33.0659 21.42 33.2153 22.124L31.5113 22.428C31.4366 22.0173 31.2793 21.6547 31.0393 21.34C30.8046 21.0253 30.5059 20.78 30.1433 20.604C29.7859 20.428 29.3833 20.3373 28.9353 20.332C28.5139 20.3213 28.1353 20.388 27.7993 20.532C27.4686 20.6707 27.2046 20.868 27.0073 21.124C26.8153 21.3747 26.7193 21.66 26.7193 21.98C26.7193 22.332 26.8553 22.6307 27.1273 22.876C27.3993 23.1213 27.8286 23.332 28.4153 23.508L30.5353 24.124C31.5059 24.412 32.2073 24.7987 32.6393 25.284C33.0713 25.7693 33.2873 26.4147 33.2873 27.22C33.2873 27.924 33.1113 28.54 32.7593 29.068C32.4126 29.5907 31.9246 30.0013 31.2953 30.3C30.6659 30.5933 29.9326 30.74 29.0953 30.74Z" fill="#212121"/>
</svg>
