<svg width="292" height="90" viewBox="0 0 292 90" fill="none" xmlns="http://www.w3.org/2000/svg">
<path d="M3.6225 84.2707V79.7482L0 73.4707H1.275L4.1775 78.4882L7.065 73.4707H8.34L4.7325 79.7482V84.2707H3.6225ZM11.5663 84.4957C10.7613 84.4957 10.0738 84.3132 9.50379 83.9482C8.93379 83.5832 8.49629 83.0782 8.19129 82.4332C7.88629 81.7882 7.73379 81.0482 7.73379 80.2132C7.73379 79.3632 7.88879 78.6182 8.19879 77.9782C8.50879 77.3382 8.94879 76.8407 9.51879 76.4857C10.0938 76.1257 10.7763 75.9457 11.5663 75.9457C12.3763 75.9457 13.0663 76.1282 13.6363 76.4932C14.2113 76.8532 14.6488 77.3557 14.9488 78.0007C15.2538 78.6407 15.4063 79.3782 15.4063 80.2132C15.4063 81.0632 15.2538 81.8107 14.9488 82.4557C14.6438 83.0957 14.2038 83.5957 13.6288 83.9557C13.0538 84.3157 12.3663 84.4957 11.5663 84.4957ZM11.5663 83.4382C12.4663 83.4382 13.1363 83.1407 13.5763 82.5457C14.0163 81.9457 14.2363 81.1682 14.2363 80.2132C14.2363 79.2332 14.0138 78.4532 13.5688 77.8732C13.1288 77.2932 12.4613 77.0032 11.5663 77.0032C10.9613 77.0032 10.4613 77.1407 10.0663 77.4157C9.67629 77.6857 9.38379 78.0632 9.18879 78.5482C8.99879 79.0282 8.90379 79.5832 8.90379 80.2132C8.90379 81.1882 9.12879 81.9707 9.57879 82.5607C10.0288 83.1457 10.6913 83.4382 11.5663 83.4382ZM20.1582 84.4732C19.6732 84.4732 19.2482 84.3982 18.8832 84.2482C18.5232 84.0982 18.2157 83.8957 17.9607 83.6407C17.7107 83.3857 17.5082 83.0957 17.3532 82.7707C17.1982 82.4407 17.0857 82.0932 17.0157 81.7282C16.9457 81.3582 16.9107 80.9907 16.9107 80.6257V76.1707H18.0207V80.3032C18.0207 80.7482 18.0632 81.1607 18.1482 81.5407C18.2332 81.9207 18.3682 82.2532 18.5532 82.5382C18.7432 82.8182 18.9857 83.0357 19.2807 83.1907C19.5807 83.3457 19.9432 83.4232 20.3682 83.4232C20.7582 83.4232 21.1007 83.3557 21.3957 83.2207C21.6957 83.0857 21.9457 82.8932 22.1457 82.6432C22.3507 82.3882 22.5057 82.0807 22.6107 81.7207C22.7157 81.3557 22.7682 80.9457 22.7682 80.4907L23.5482 80.6632C23.5482 81.4932 23.4032 82.1907 23.1132 82.7557C22.8232 83.3207 22.4232 83.7482 21.9132 84.0382C21.4032 84.3282 20.8182 84.4732 20.1582 84.4732ZM22.8807 84.2707V82.2757H22.7682V76.1707H23.8707V84.2707H22.8807ZM25.967 84.2707V76.1707H26.957V78.1207L26.762 77.8657C26.852 77.6257 26.9695 77.4057 27.1145 77.2057C27.2595 77.0007 27.417 76.8332 27.587 76.7032C27.797 76.5182 28.042 76.3782 28.322 76.2832C28.602 76.1832 28.8845 76.1257 29.1695 76.1107C29.4545 76.0907 29.7145 76.1107 29.9495 76.1707V77.2057C29.6545 77.1307 29.332 77.1132 28.982 77.1532C28.632 77.1932 28.3095 77.3332 28.0145 77.5732C27.7445 77.7832 27.542 78.0357 27.407 78.3307C27.272 78.6207 27.182 78.9307 27.137 79.2607C27.092 79.5857 27.0695 79.9082 27.0695 80.2282V84.2707H25.967ZM36.5652 84.2707L33.6252 76.1707H34.7427L37.1352 82.8307L39.5127 76.1707H40.6452L37.7052 84.2707H36.5652ZM42.1424 74.6332V73.3957H43.2449V74.6332H42.1424ZM42.1424 84.2707V76.1707H43.2449V84.2707H42.1424ZM45.4934 84.2707V76.1707H46.4834V78.1207L46.2884 77.8657C46.3784 77.6257 46.4959 77.4057 46.6409 77.2057C46.7859 77.0007 46.9434 76.8332 47.1134 76.7032C47.3234 76.5182 47.5684 76.3782 47.8484 76.2832C48.1284 76.1832 48.4109 76.1257 48.6959 76.1107C48.9809 76.0907 49.2409 76.1107 49.4759 76.1707V77.2057C49.1809 77.1307 48.8584 77.1132 48.5084 77.1532C48.1584 77.1932 47.8359 77.3332 47.5409 77.5732C47.2709 77.7832 47.0684 78.0357 46.9334 78.3307C46.7984 78.6207 46.7084 78.9307 46.6634 79.2607C46.6184 79.5857 46.5959 79.9082 46.5959 80.2282V84.2707H45.4934ZM55.3086 84.2707C54.8536 84.3657 54.4036 84.4032 53.9586 84.3832C53.5186 84.3632 53.1236 84.2682 52.7736 84.0982C52.4286 83.9282 52.1661 83.6632 51.9861 83.3032C51.8411 83.0032 51.7611 82.7007 51.7461 82.3957C51.7361 82.0857 51.7311 81.7332 51.7311 81.3382V73.9207H52.8261V81.2932C52.8261 81.6332 52.8286 81.9182 52.8336 82.1482C52.8436 82.3732 52.8961 82.5732 52.9911 82.7482C53.1711 83.0832 53.4561 83.2832 53.8461 83.3482C54.2411 83.4132 54.7286 83.3982 55.3086 83.3032V84.2707ZM49.9986 77.1157V76.1707H55.3086V77.1157H49.9986ZM60.002 84.4732C59.517 84.4732 59.092 84.3982 58.727 84.2482C58.367 84.0982 58.0595 83.8957 57.8045 83.6407C57.5545 83.3857 57.352 83.0957 57.197 82.7707C57.042 82.4407 56.9295 82.0932 56.8595 81.7282C56.7895 81.3582 56.7545 80.9907 56.7545 80.6257V76.1707H57.8645V80.3032C57.8645 80.7482 57.907 81.1607 57.992 81.5407C58.077 81.9207 58.212 82.2532 58.397 82.5382C58.587 82.8182 58.8295 83.0357 59.1245 83.1907C59.4245 83.3457 59.787 83.4232 60.212 83.4232C60.602 83.4232 60.9445 83.3557 61.2395 83.2207C61.5395 83.0857 61.7895 82.8932 61.9895 82.6432C62.1945 82.3882 62.3495 82.0807 62.4545 81.7207C62.5595 81.3557 62.612 80.9457 62.612 80.4907L63.392 80.6632C63.392 81.4932 63.247 82.1907 62.957 82.7557C62.667 83.3207 62.267 83.7482 61.757 84.0382C61.247 84.3282 60.662 84.4732 60.002 84.4732ZM62.7245 84.2707V82.2757H62.612V76.1707H63.7145V84.2707H62.7245ZM68.1282 84.4957C67.5182 84.4957 67.0057 84.3857 66.5907 84.1657C66.1807 83.9457 65.8732 83.6532 65.6682 83.2882C65.4632 82.9232 65.3607 82.5257 65.3607 82.0957C65.3607 81.6557 65.4482 81.2807 65.6232 80.9707C65.8032 80.6557 66.0457 80.3982 66.3507 80.1982C66.6607 79.9982 67.0182 79.8457 67.4232 79.7407C67.8332 79.6407 68.2857 79.5532 68.7807 79.4782C69.2807 79.3982 69.7682 79.3307 70.2432 79.2757C70.7232 79.2157 71.1432 79.1582 71.5032 79.1032L71.1132 79.3432C71.1282 78.5432 70.9732 77.9507 70.6482 77.5657C70.3232 77.1807 69.7582 76.9882 68.9532 76.9882C68.3982 76.9882 67.9282 77.1132 67.5432 77.3632C67.1632 77.6132 66.8957 78.0082 66.7407 78.5482L65.6682 78.2332C65.8532 77.5082 66.2257 76.9457 66.7857 76.5457C67.3457 76.1457 68.0732 75.9457 68.9682 75.9457C69.7082 75.9457 70.3357 76.0857 70.8507 76.3657C71.3707 76.6407 71.7382 77.0407 71.9532 77.5657C72.0532 77.8007 72.1182 78.0632 72.1482 78.3532C72.1782 78.6432 72.1932 78.9382 72.1932 79.2382V84.2707H71.2107V82.2382L71.4957 82.3582C71.2207 83.0532 70.7932 83.5832 70.2132 83.9482C69.6332 84.3132 68.9382 84.4957 68.1282 84.4957ZM68.2557 83.5432C68.7707 83.5432 69.2207 83.4507 69.6057 83.2657C69.9907 83.0807 70.3007 82.8282 70.5357 82.5082C70.7707 82.1832 70.9232 81.8182 70.9932 81.4132C71.0532 81.1532 71.0857 80.8682 71.0907 80.5582C71.0957 80.2432 71.0982 80.0082 71.0982 79.8532L71.5182 80.0707C71.1432 80.1207 70.7357 80.1707 70.2957 80.2207C69.8607 80.2707 69.4307 80.3282 69.0057 80.3932C68.5857 80.4582 68.2057 80.5357 67.8657 80.6257C67.6357 80.6907 67.4132 80.7832 67.1982 80.9032C66.9832 81.0182 66.8057 81.1732 66.6657 81.3682C66.5307 81.5632 66.4632 81.8057 66.4632 82.0957C66.4632 82.3307 66.5207 82.5582 66.6357 82.7782C66.7557 82.9982 66.9457 83.1807 67.2057 83.3257C67.4707 83.4707 67.8207 83.5432 68.2557 83.5432ZM74.2957 84.2707V73.2457H75.3982V84.2707H74.2957ZM84.2871 84.4957C83.5421 84.4957 82.9121 84.3082 82.3971 83.9332C81.8821 83.5532 81.4921 83.0407 81.2271 82.3957C80.9621 81.7457 80.8296 81.0182 80.8296 80.2132C80.8296 79.3932 80.9621 78.6632 81.2271 78.0232C81.4971 77.3782 81.8921 76.8707 82.4121 76.5007C82.9321 76.1307 83.5721 75.9457 84.3321 75.9457C85.0721 75.9457 85.7071 76.1332 86.2371 76.5082C86.7671 76.8832 87.1721 77.3932 87.4521 78.0382C87.7371 78.6832 87.8796 79.4082 87.8796 80.2132C87.8796 81.0232 87.7371 81.7507 87.4521 82.3957C87.1671 83.0407 86.7571 83.5532 86.2221 83.9332C85.6871 84.3082 85.0421 84.4957 84.2871 84.4957ZM80.6421 87.8707V76.1707H81.6321V82.2682H81.7521V87.8707H80.6421ZM84.1746 83.4682C84.7396 83.4682 85.2096 83.3257 85.5846 83.0407C85.9596 82.7557 86.2396 82.3682 86.4246 81.8782C86.6146 81.3832 86.7096 80.8282 86.7096 80.2132C86.7096 79.6032 86.6171 79.0532 86.4321 78.5632C86.2471 78.0732 85.9646 77.6857 85.5846 77.4007C85.2096 77.1157 84.7321 76.9732 84.1521 76.9732C83.5871 76.9732 83.1171 77.1107 82.7421 77.3857C82.3721 77.6607 82.0946 78.0432 81.9096 78.5332C81.7246 79.0182 81.6321 79.5782 81.6321 80.2132C81.6321 80.8382 81.7246 81.3982 81.9096 81.8932C82.0946 82.3832 82.3746 82.7682 82.7496 83.0482C83.1246 83.3282 83.5996 83.4682 84.1746 83.4682ZM89.6766 74.6332V73.3957H90.7791V74.6332H89.6766ZM89.6766 84.2707V76.1707H90.7791V84.2707H89.6766ZM93.1775 84.2707V73.2457H94.28V84.2707H93.1775ZM99.911 84.4957C99.106 84.4957 98.4185 84.3132 97.8485 83.9482C97.2785 83.5832 96.841 83.0782 96.536 82.4332C96.231 81.7882 96.0785 81.0482 96.0785 80.2132C96.0785 79.3632 96.2335 78.6182 96.5435 77.9782C96.8535 77.3382 97.2935 76.8407 97.8635 76.4857C98.4385 76.1257 99.121 75.9457 99.911 75.9457C100.721 75.9457 101.411 76.1282 101.981 76.4932C102.556 76.8532 102.994 77.3557 103.294 78.0007C103.599 78.6407 103.751 79.3782 103.751 80.2132C103.751 81.0632 103.599 81.8107 103.294 82.4557C102.989 83.0957 102.549 83.5957 101.974 83.9557C101.399 84.3157 100.711 84.4957 99.911 84.4957ZM99.911 83.4382C100.811 83.4382 101.481 83.1407 101.921 82.5457C102.361 81.9457 102.581 81.1682 102.581 80.2132C102.581 79.2332 102.359 78.4532 101.914 77.8732C101.474 77.2932 100.806 77.0032 99.911 77.0032C99.306 77.0032 98.806 77.1407 98.411 77.4157C98.021 77.6857 97.7285 78.0632 97.5335 78.5482C97.3435 79.0282 97.2485 79.5832 97.2485 80.2132C97.2485 81.1882 97.4735 81.9707 97.9235 82.5607C98.3735 83.1457 99.036 83.4382 99.911 83.4382ZM109.815 84.2707C109.36 84.3657 108.91 84.4032 108.465 84.3832C108.025 84.3632 107.63 84.2682 107.28 84.0982C106.935 83.9282 106.673 83.6632 106.493 83.3032C106.348 83.0032 106.268 82.7007 106.253 82.3957C106.243 82.0857 106.238 81.7332 106.238 81.3382V73.9207H107.333V81.2932C107.333 81.6332 107.335 81.9182 107.34 82.1482C107.35 82.3732 107.403 82.5732 107.498 82.7482C107.678 83.0832 107.963 83.2832 108.353 83.3482C108.748 83.4132 109.235 83.3982 109.815 83.3032V84.2707ZM104.505 77.1157V76.1707H109.815V77.1157H104.505ZM117.774 84.4957C116.959 84.4957 116.269 84.3132 115.704 83.9482C115.139 83.5832 114.709 83.0807 114.414 82.4407C114.124 81.7957 113.974 81.0557 113.964 80.2207C113.974 79.3707 114.129 78.6257 114.429 77.9857C114.729 77.3407 115.162 76.8407 115.727 76.4857C116.292 76.1257 116.977 75.9457 117.782 75.9457C118.602 75.9457 119.314 76.1457 119.919 76.5457C120.529 76.9457 120.947 77.4932 121.172 78.1882L120.092 78.5332C119.902 78.0482 119.599 77.6732 119.184 77.4082C118.774 77.1382 118.304 77.0032 117.774 77.0032C117.179 77.0032 116.687 77.1407 116.297 77.4157C115.907 77.6857 115.617 78.0632 115.427 78.5482C115.237 79.0332 115.139 79.5907 115.134 80.2207C115.144 81.1907 115.369 81.9707 115.809 82.5607C116.249 83.1457 116.904 83.4382 117.774 83.4382C118.324 83.4382 118.792 83.3132 119.177 83.0632C119.567 82.8082 119.862 82.4382 120.062 81.9532L121.172 82.2832C120.872 83.0032 120.432 83.5532 119.852 83.9332C119.272 84.3082 118.579 84.4957 117.774 84.4957ZM124.993 84.4957C124.383 84.4957 123.871 84.3857 123.456 84.1657C123.046 83.9457 122.738 83.6532 122.533 83.2882C122.328 82.9232 122.226 82.5257 122.226 82.0957C122.226 81.6557 122.313 81.2807 122.488 80.9707C122.668 80.6557 122.911 80.3982 123.216 80.1982C123.526 79.9982 123.883 79.8457 124.288 79.7407C124.698 79.6407 125.151 79.5532 125.646 79.4782C126.146 79.3982 126.633 79.3307 127.108 79.2757C127.588 79.2157 128.008 79.1582 128.368 79.1032L127.978 79.3432C127.993 78.5432 127.838 77.9507 127.513 77.5657C127.188 77.1807 126.623 76.9882 125.818 76.9882C125.263 76.9882 124.793 77.1132 124.408 77.3632C124.028 77.6132 123.761 78.0082 123.606 78.5482L122.533 78.2332C122.718 77.5082 123.091 76.9457 123.651 76.5457C124.211 76.1457 124.938 75.9457 125.833 75.9457C126.573 75.9457 127.201 76.0857 127.716 76.3657C128.236 76.6407 128.603 77.0407 128.818 77.5657C128.918 77.8007 128.983 78.0632 129.013 78.3532C129.043 78.6432 129.058 78.9382 129.058 79.2382V84.2707H128.076V82.2382L128.361 82.3582C128.086 83.0532 127.658 83.5832 127.078 83.9482C126.498 84.3132 125.803 84.4957 124.993 84.4957ZM125.121 83.5432C125.636 83.5432 126.086 83.4507 126.471 83.2657C126.856 83.0807 127.166 82.8282 127.401 82.5082C127.636 82.1832 127.788 81.8182 127.858 81.4132C127.918 81.1532 127.951 80.8682 127.956 80.5582C127.961 80.2432 127.963 80.0082 127.963 79.8532L128.383 80.0707C128.008 80.1207 127.601 80.1707 127.161 80.2207C126.726 80.2707 126.296 80.3282 125.871 80.3932C125.451 80.4582 125.071 80.5357 124.731 80.6257C124.501 80.6907 124.278 80.7832 124.063 80.9032C123.848 81.0182 123.671 81.1732 123.531 81.3682C123.396 81.5632 123.328 81.8057 123.328 82.0957C123.328 82.3307 123.386 82.5582 123.501 82.7782C123.621 82.9982 123.811 83.1807 124.071 83.3257C124.336 83.4707 124.686 83.5432 125.121 83.5432ZM131.011 84.2707V76.1707H132.001V78.1207L131.806 77.8657C131.896 77.6257 132.013 77.4057 132.158 77.2057C132.303 77.0007 132.461 76.8332 132.631 76.7032C132.841 76.5182 133.086 76.3782 133.366 76.2832C133.646 76.1832 133.928 76.1257 134.213 76.1107C134.498 76.0907 134.758 76.1107 134.993 76.1707V77.2057C134.698 77.1307 134.376 77.1132 134.026 77.1532C133.676 77.1932 133.353 77.3332 133.058 77.5732C132.788 77.7832 132.586 78.0357 132.451 78.3307C132.316 78.6207 132.226 78.9307 132.181 79.2607C132.136 79.5857 132.113 79.9082 132.113 80.2282V84.2707H131.011ZM139.697 84.4957C138.907 84.4957 138.222 84.3207 137.642 83.9707C137.067 83.6207 136.62 83.1282 136.3 82.4932C135.98 81.8582 135.82 81.1132 135.82 80.2582C135.82 79.3732 135.977 78.6082 136.292 77.9632C136.607 77.3182 137.05 76.8207 137.62 76.4707C138.195 76.1207 138.872 75.9457 139.652 75.9457C140.452 75.9457 141.135 76.1307 141.7 76.5007C142.265 76.8657 142.692 77.3907 142.982 78.0757C143.272 78.7607 143.405 79.5782 143.38 80.5282H142.255V80.1382C142.235 79.0882 142.007 78.2957 141.572 77.7607C141.142 77.2257 140.512 76.9582 139.682 76.9582C138.812 76.9582 138.145 77.2407 137.68 77.8057C137.22 78.3707 136.99 79.1757 136.99 80.2207C136.99 81.2407 137.22 82.0332 137.68 82.5982C138.145 83.1582 138.802 83.4382 139.652 83.4382C140.232 83.4382 140.737 83.3057 141.167 83.0407C141.602 82.7707 141.945 82.3832 142.195 81.8782L143.222 82.2757C142.902 82.9807 142.43 83.5282 141.805 83.9182C141.185 84.3032 140.482 84.4957 139.697 84.4957ZM136.6 80.5282V79.6057H142.787V80.5282H136.6ZM148.472 84.4957C147.682 84.4957 146.997 84.3207 146.417 83.9707C145.842 83.6207 145.394 83.1282 145.074 82.4932C144.754 81.8582 144.594 81.1132 144.594 80.2582C144.594 79.3732 144.752 78.6082 145.067 77.9632C145.382 77.3182 145.824 76.8207 146.394 76.4707C146.969 76.1207 147.647 75.9457 148.427 75.9457C149.227 75.9457 149.909 76.1307 150.474 76.5007C151.039 76.8657 151.467 77.3907 151.757 78.0757C152.047 78.7607 152.179 79.5782 152.154 80.5282H151.029V80.1382C151.009 79.0882 150.782 78.2957 150.347 77.7607C149.917 77.2257 149.287 76.9582 148.457 76.9582C147.587 76.9582 146.919 77.2407 146.454 77.8057C145.994 78.3707 145.764 79.1757 145.764 80.2207C145.764 81.2407 145.994 82.0332 146.454 82.5982C146.919 83.1582 147.577 83.4382 148.427 83.4382C149.007 83.4382 149.512 83.3057 149.942 83.0407C150.377 82.7707 150.719 82.3832 150.969 81.8782L151.997 82.2757C151.677 82.9807 151.204 83.5282 150.579 83.9182C149.959 84.3032 149.257 84.4957 148.472 84.4957ZM145.374 80.5282V79.6057H151.562V80.5282H145.374ZM153.819 84.2707V76.1707H154.809V78.1207L154.614 77.8657C154.704 77.6257 154.821 77.4057 154.966 77.2057C155.111 77.0007 155.269 76.8332 155.439 76.7032C155.649 76.5182 155.894 76.3782 156.174 76.2832C156.454 76.1832 156.736 76.1257 157.021 76.1107C157.306 76.0907 157.566 76.1107 157.801 76.1707V77.2057C157.506 77.1307 157.184 77.1132 156.834 77.1532C156.484 77.1932 156.161 77.3332 155.866 77.5732C155.596 77.7832 155.394 78.0357 155.259 78.3307C155.124 78.6207 155.034 78.9307 154.989 79.2607C154.944 79.5857 154.921 79.9082 154.921 80.2282V84.2707H153.819ZM163.029 84.2707V75.5707C163.029 75.3607 163.039 75.1532 163.059 74.9482C163.084 74.7432 163.132 74.5482 163.202 74.3632C163.272 74.1732 163.382 73.9982 163.532 73.8382C163.697 73.6582 163.877 73.5282 164.072 73.4482C164.267 73.3632 164.469 73.3082 164.679 73.2832C164.894 73.2582 165.104 73.2457 165.309 73.2457H166.344V74.1757H165.384C164.964 74.1757 164.649 74.2782 164.439 74.4832C164.234 74.6882 164.132 75.0107 164.132 75.4507V84.2707H163.029ZM161.627 77.1157V76.1707H166.344V77.1157H161.627ZM170.634 84.4957C169.829 84.4957 169.141 84.3132 168.571 83.9482C168.001 83.5832 167.564 83.0782 167.259 82.4332C166.954 81.7882 166.801 81.0482 166.801 80.2132C166.801 79.3632 166.956 78.6182 167.266 77.9782C167.576 77.3382 168.016 76.8407 168.586 76.4857C169.161 76.1257 169.844 75.9457 170.634 75.9457C171.444 75.9457 172.134 76.1282 172.704 76.4932C173.279 76.8532 173.716 77.3557 174.016 78.0007C174.321 78.6407 174.474 79.3782 174.474 80.2132C174.474 81.0632 174.321 81.8107 174.016 82.4557C173.711 83.0957 173.271 83.5957 172.696 83.9557C172.121 84.3157 171.434 84.4957 170.634 84.4957ZM170.634 83.4382C171.534 83.4382 172.204 83.1407 172.644 82.5457C173.084 81.9457 173.304 81.1682 173.304 80.2132C173.304 79.2332 173.081 78.4532 172.636 77.8732C172.196 77.2932 171.529 77.0032 170.634 77.0032C170.029 77.0032 169.529 77.1407 169.134 77.4157C168.744 77.6857 168.451 78.0632 168.256 78.5482C168.066 79.0282 167.971 79.5832 167.971 80.2132C167.971 81.1882 168.196 81.9707 168.646 82.5607C169.096 83.1457 169.759 83.4382 170.634 83.4382ZM176.128 84.2707V76.1707H177.118V78.1207L176.923 77.8657C177.013 77.6257 177.131 77.4057 177.276 77.2057C177.421 77.0007 177.578 76.8332 177.748 76.7032C177.958 76.5182 178.203 76.3782 178.483 76.2832C178.763 76.1832 179.046 76.1257 179.331 76.1107C179.616 76.0907 179.876 76.1107 180.111 76.1707V77.2057C179.816 77.1307 179.493 77.1132 179.143 77.1532C178.793 77.1932 178.471 77.3332 178.176 77.5732C177.906 77.7832 177.703 78.0357 177.568 78.3307C177.433 78.6207 177.343 78.9307 177.298 79.2607C177.253 79.5857 177.231 79.9082 177.231 80.2282V84.2707H176.128ZM184.536 84.2707V73.4707H190.739V74.5732H185.639V78.3232H189.839V79.4182H185.639V84.2707H184.536ZM192.245 84.2707V73.2457H193.347V84.2707H192.245ZM195.746 74.6332V73.3957H196.848V74.6332H195.746ZM195.746 84.2707V76.1707H196.848V84.2707H195.746ZM202.314 88.0957C201.899 88.0957 201.489 88.0332 201.084 87.9082C200.684 87.7882 200.314 87.5957 199.974 87.3307C199.634 87.0707 199.349 86.7307 199.119 86.3107L200.117 85.7557C200.342 86.2057 200.657 86.5282 201.062 86.7232C201.472 86.9232 201.889 87.0232 202.314 87.0232C202.899 87.0232 203.372 86.9132 203.732 86.6932C204.097 86.4782 204.362 86.1582 204.527 85.7332C204.692 85.3082 204.772 84.7782 204.767 84.1432V81.9832H204.894V76.1707H205.877V84.1582C205.877 84.3882 205.869 84.6082 205.854 84.8182C205.844 85.0332 205.822 85.2432 205.787 85.4482C205.692 86.0532 205.494 86.5507 205.194 86.9407C204.899 87.3307 204.509 87.6207 204.024 87.8107C203.544 88.0007 202.974 88.0957 202.314 88.0957ZM202.239 84.4957C201.484 84.4957 200.839 84.3082 200.304 83.9332C199.769 83.5532 199.359 83.0407 199.074 82.3957C198.789 81.7507 198.647 81.0232 198.647 80.2132C198.647 79.4082 198.787 78.6832 199.067 78.0382C199.352 77.3932 199.759 76.8832 200.289 76.5082C200.819 76.1332 201.454 75.9457 202.194 75.9457C202.954 75.9457 203.594 76.1307 204.114 76.5007C204.634 76.8707 205.027 77.3782 205.292 78.0232C205.562 78.6632 205.697 79.3932 205.697 80.2132C205.697 81.0182 205.564 81.7457 205.299 82.3957C205.034 83.0407 204.644 83.5532 204.129 83.9332C203.614 84.3082 202.984 84.4957 202.239 84.4957ZM202.352 83.4682C202.927 83.4682 203.402 83.3282 203.777 83.0482C204.152 82.7682 204.432 82.3832 204.617 81.8932C204.802 81.3982 204.894 80.8382 204.894 80.2132C204.894 79.5782 204.802 79.0182 204.617 78.5332C204.432 78.0432 204.152 77.6607 203.777 77.3857C203.407 77.1107 202.939 76.9732 202.374 76.9732C201.794 76.9732 201.314 77.1157 200.934 77.4007C200.554 77.6857 200.272 78.0732 200.087 78.5632C199.907 79.0532 199.817 79.6032 199.817 80.2132C199.817 80.8282 199.909 81.3832 200.094 81.8782C200.284 82.3682 200.567 82.7557 200.942 83.0407C201.317 83.3257 201.787 83.4682 202.352 83.4682ZM213.824 84.2707V80.1382C213.824 79.6882 213.781 79.2757 213.696 78.9007C213.611 78.5207 213.474 78.1907 213.284 77.9107C213.099 77.6257 212.856 77.4057 212.556 77.2507C212.261 77.0957 211.901 77.0182 211.476 77.0182C211.086 77.0182 210.741 77.0857 210.441 77.2207C210.146 77.3557 209.896 77.5507 209.691 77.8057C209.491 78.0557 209.339 78.3607 209.234 78.7207C209.129 79.0807 209.076 79.4907 209.076 79.9507L208.296 79.7782C208.296 78.9482 208.441 78.2507 208.731 77.6857C209.021 77.1207 209.421 76.6932 209.931 76.4032C210.441 76.1132 211.026 75.9682 211.686 75.9682C212.171 75.9682 212.594 76.0432 212.954 76.1932C213.319 76.3432 213.626 76.5457 213.876 76.8007C214.131 77.0557 214.336 77.3482 214.491 77.6782C214.646 78.0032 214.759 78.3507 214.829 78.7207C214.899 79.0857 214.934 79.4507 214.934 79.8157V84.2707H213.824ZM207.966 84.2707V73.4707H208.964V79.5682H209.076V84.2707H207.966ZM221.29 84.2707C220.835 84.3657 220.385 84.4032 219.94 84.3832C219.5 84.3632 219.105 84.2682 218.755 84.0982C218.41 83.9282 218.148 83.6632 217.968 83.3032C217.823 83.0032 217.743 82.7007 217.728 82.3957C217.718 82.0857 217.713 81.7332 217.713 81.3382V73.9207H218.808V81.2932C218.808 81.6332 218.81 81.9182 218.815 82.1482C218.825 82.3732 218.878 82.5732 218.973 82.7482C219.153 83.0832 219.438 83.2832 219.828 83.3482C220.223 83.4132 220.71 83.3982 221.29 83.3032V84.2707ZM215.98 77.1157V76.1707H221.29V77.1157H215.98ZM229.639 84.4957C228.884 84.4957 228.204 84.3707 227.599 84.1207C226.999 83.8657 226.501 83.5057 226.106 83.0407C225.716 82.5757 225.461 82.0232 225.341 81.3832L226.466 81.1957C226.646 81.8957 227.026 82.4457 227.606 82.8457C228.186 83.2407 228.879 83.4382 229.684 83.4382C230.214 83.4382 230.689 83.3557 231.109 83.1907C231.529 83.0207 231.859 82.7807 232.099 82.4707C232.339 82.1607 232.459 81.7932 232.459 81.3682C232.459 81.0882 232.409 80.8507 232.309 80.6557C232.209 80.4557 232.076 80.2907 231.911 80.1607C231.746 80.0307 231.566 79.9232 231.371 79.8382C231.176 79.7482 230.986 79.6757 230.801 79.6207L228.064 78.8032C227.734 78.7082 227.429 78.5882 227.149 78.4432C226.869 78.2932 226.624 78.1157 226.414 77.9107C226.209 77.7007 226.049 77.4557 225.934 77.1757C225.819 76.8957 225.761 76.5757 225.761 76.2157C225.761 75.6057 225.921 75.0782 226.241 74.6332C226.561 74.1882 226.999 73.8457 227.554 73.6057C228.109 73.3657 228.741 73.2482 229.451 73.2532C230.171 73.2532 230.814 73.3807 231.379 73.6357C231.949 73.8907 232.419 74.2557 232.789 74.7307C233.159 75.2007 233.404 75.7582 233.524 76.4032L232.369 76.6132C232.294 76.1432 232.121 75.7357 231.851 75.3907C231.581 75.0457 231.236 74.7807 230.816 74.5957C230.401 74.4057 229.944 74.3082 229.444 74.3032C228.959 74.3032 228.526 74.3857 228.146 74.5507C227.771 74.7107 227.474 74.9307 227.254 75.2107C227.034 75.4907 226.924 75.8107 226.924 76.1707C226.924 76.5357 227.024 76.8282 227.224 77.0482C227.429 77.2682 227.679 77.4407 227.974 77.5657C228.274 77.6907 228.564 77.7932 228.844 77.8732L230.959 78.4957C231.179 78.5557 231.436 78.6432 231.731 78.7582C232.031 78.8682 232.321 79.0282 232.601 79.2382C232.886 79.4432 233.121 79.7132 233.306 80.0482C233.491 80.3832 233.584 80.8082 233.584 81.3232C233.584 81.8232 233.484 82.2707 233.284 82.6657C233.089 83.0607 232.811 83.3932 232.451 83.6632C232.096 83.9332 231.679 84.1382 231.199 84.2782C230.724 84.4232 230.204 84.4957 229.639 84.4957ZM235.282 74.6332V73.3957H236.385V74.6332H235.282ZM235.282 84.2707V76.1707H236.385V84.2707H235.282ZM248.293 84.2707L248.301 78.9532C248.301 78.3282 248.126 77.8382 247.776 77.4832C247.431 77.1232 246.991 76.9432 246.456 76.9432C246.151 76.9432 245.853 77.0132 245.563 77.1532C245.273 77.2932 245.033 77.5182 244.843 77.8282C244.658 78.1382 244.566 78.5432 244.566 79.0432L243.913 78.8557C243.898 78.2757 244.011 77.7682 244.251 77.3332C244.496 76.8982 244.831 76.5607 245.256 76.3207C245.686 76.0757 246.171 75.9532 246.711 75.9532C247.526 75.9532 248.178 76.2057 248.668 76.7107C249.158 77.2107 249.403 77.8882 249.403 78.7432L249.396 84.2707H248.293ZM238.626 84.2707V76.1707H239.616V78.1657H239.736V84.2707H238.626ZM243.471 84.2707L243.478 79.0282C243.478 78.3832 243.306 77.8757 242.961 77.5057C242.621 77.1307 242.171 76.9432 241.611 76.9432C241.051 76.9432 240.598 77.1357 240.253 77.5207C239.908 77.9007 239.736 78.4082 239.736 79.0432L239.076 78.6832C239.076 78.1632 239.198 77.6982 239.443 77.2882C239.688 76.8732 240.023 76.5482 240.448 76.3132C240.873 76.0732 241.356 75.9532 241.896 75.9532C242.411 75.9532 242.868 76.0632 243.268 76.2832C243.673 76.5032 243.991 76.8232 244.221 77.2432C244.451 77.6632 244.566 78.1732 244.566 78.7732L244.558 84.2707H243.471ZM254.445 84.4732C253.96 84.4732 253.535 84.3982 253.17 84.2482C252.81 84.0982 252.503 83.8957 252.248 83.6407C251.998 83.3857 251.795 83.0957 251.64 82.7707C251.485 82.4407 251.373 82.0932 251.303 81.7282C251.233 81.3582 251.198 80.9907 251.198 80.6257V76.1707H252.308V80.3032C252.308 80.7482 252.35 81.1607 252.435 81.5407C252.52 81.9207 252.655 82.2532 252.84 82.5382C253.03 82.8182 253.273 83.0357 253.568 83.1907C253.868 83.3457 254.23 83.4232 254.655 83.4232C255.045 83.4232 255.388 83.3557 255.683 83.2207C255.983 83.0857 256.233 82.8932 256.433 82.6432C256.638 82.3882 256.793 82.0807 256.898 81.7207C257.003 81.3557 257.055 80.9457 257.055 80.4907L257.835 80.6632C257.835 81.4932 257.69 82.1907 257.4 82.7557C257.11 83.3207 256.71 83.7482 256.2 84.0382C255.69 84.3282 255.105 84.4732 254.445 84.4732ZM257.168 84.2707V82.2757H257.055V76.1707H258.158V84.2707H257.168ZM260.404 84.2707V73.2457H261.507V84.2707H260.404ZM266.073 84.4957C265.463 84.4957 264.95 84.3857 264.535 84.1657C264.125 83.9457 263.818 83.6532 263.613 83.2882C263.408 82.9232 263.305 82.5257 263.305 82.0957C263.305 81.6557 263.393 81.2807 263.568 80.9707C263.748 80.6557 263.99 80.3982 264.295 80.1982C264.605 79.9982 264.963 79.8457 265.368 79.7407C265.778 79.6407 266.23 79.5532 266.725 79.4782C267.225 79.3982 267.713 79.3307 268.188 79.2757C268.668 79.2157 269.088 79.1582 269.448 79.1032L269.058 79.3432C269.073 78.5432 268.918 77.9507 268.593 77.5657C268.268 77.1807 267.703 76.9882 266.898 76.9882C266.343 76.9882 265.873 77.1132 265.488 77.3632C265.108 77.6132 264.84 78.0082 264.685 78.5482L263.613 78.2332C263.798 77.5082 264.17 76.9457 264.73 76.5457C265.29 76.1457 266.018 75.9457 266.913 75.9457C267.653 75.9457 268.28 76.0857 268.795 76.3657C269.315 76.6407 269.683 77.0407 269.898 77.5657C269.998 77.8007 270.063 78.0632 270.093 78.3532C270.123 78.6432 270.138 78.9382 270.138 79.2382V84.2707H269.155V82.2382L269.44 82.3582C269.165 83.0532 268.738 83.5832 268.158 83.9482C267.578 84.3132 266.883 84.4957 266.073 84.4957ZM266.2 83.5432C266.715 83.5432 267.165 83.4507 267.55 83.2657C267.935 83.0807 268.245 82.8282 268.48 82.5082C268.715 82.1832 268.868 81.8182 268.938 81.4132C268.998 81.1532 269.03 80.8682 269.035 80.5582C269.04 80.2432 269.043 80.0082 269.043 79.8532L269.463 80.0707C269.088 80.1207 268.68 80.1707 268.24 80.2207C267.805 80.2707 267.375 80.3282 266.95 80.3932C266.53 80.4582 266.15 80.5357 265.81 80.6257C265.58 80.6907 265.358 80.7832 265.143 80.9032C264.928 81.0182 264.75 81.1732 264.61 81.3682C264.475 81.5632 264.408 81.8057 264.408 82.0957C264.408 82.3307 264.465 82.5582 264.58 82.7782C264.7 82.9982 264.89 83.1807 265.15 83.3257C265.415 83.4707 265.765 83.5432 266.2 83.5432ZM276.5 84.2707C276.045 84.3657 275.595 84.4032 275.15 84.3832C274.71 84.3632 274.315 84.2682 273.965 84.0982C273.62 83.9282 273.358 83.6632 273.178 83.3032C273.033 83.0032 272.953 82.7007 272.938 82.3957C272.928 82.0857 272.923 81.7332 272.923 81.3382V73.9207H274.018V81.2932C274.018 81.6332 274.02 81.9182 274.025 82.1482C274.035 82.3732 274.088 82.5732 274.183 82.7482C274.363 83.0832 274.648 83.2832 275.038 83.3482C275.433 83.4132 275.92 83.3982 276.5 83.3032V84.2707ZM271.19 77.1157V76.1707H276.5V77.1157H271.19ZM281.185 84.4957C280.38 84.4957 279.693 84.3132 279.123 83.9482C278.553 83.5832 278.115 83.0782 277.81 82.4332C277.505 81.7882 277.353 81.0482 277.353 80.2132C277.353 79.3632 277.508 78.6182 277.818 77.9782C278.128 77.3382 278.568 76.8407 279.138 76.4857C279.713 76.1257 280.395 75.9457 281.185 75.9457C281.995 75.9457 282.685 76.1282 283.255 76.4932C283.83 76.8532 284.268 77.3557 284.568 78.0007C284.873 78.6407 285.025 79.3782 285.025 80.2132C285.025 81.0632 284.873 81.8107 284.568 82.4557C284.263 83.0957 283.823 83.5957 283.248 83.9557C282.673 84.3157 281.985 84.4957 281.185 84.4957ZM281.185 83.4382C282.085 83.4382 282.755 83.1407 283.195 82.5457C283.635 81.9457 283.855 81.1682 283.855 80.2132C283.855 79.2332 283.633 78.4532 283.188 77.8732C282.748 77.2932 282.08 77.0032 281.185 77.0032C280.58 77.0032 280.08 77.1407 279.685 77.4157C279.295 77.6857 279.003 78.0632 278.808 78.5482C278.618 79.0282 278.523 79.5832 278.523 80.2132C278.523 81.1882 278.748 81.9707 279.198 82.5607C279.648 83.1457 280.31 83.4382 281.185 83.4382ZM286.68 84.2707V76.1707H287.67V78.1207L287.475 77.8657C287.565 77.6257 287.682 77.4057 287.827 77.2057C287.972 77.0007 288.13 76.8332 288.3 76.7032C288.51 76.5182 288.755 76.3782 289.035 76.2832C289.315 76.1832 289.597 76.1257 289.882 76.1107C290.167 76.0907 290.427 76.1107 290.662 76.1707V77.2057C290.367 77.1307 290.045 77.1132 289.695 77.1532C289.345 77.1932 289.022 77.3332 288.727 77.5732C288.457 77.7832 288.255 78.0357 288.12 78.3307C287.985 78.6207 287.895 78.9307 287.85 79.2607C287.805 79.5857 287.782 79.9082 287.782 80.2282V84.2707H286.68Z" fill="white"/>
<path d="M52.2019 35.1383C51.2392 22.8352 59.3132 11.9169 71.2557 9.26634C72.0234 9.09595 72.3674 8.81834 72.3327 7.99726C72.278 6.70257 72.2949 5.40305 72.329 4.10682C72.3874 1.88827 74.0052 0.152238 76.1029 0.0106027C78.2688 -0.135647 80.157 1.24262 80.4857 3.43108C80.6987 4.84891 80.6767 6.31573 80.6224 7.75541C80.5835 8.78397 80.9011 9.19623 81.9422 9.44973C92.1368 11.932 99.031 19.4052 100.647 29.7871C101.189 33.2705 100.913 36.7504 99.8461 40.1395C99.7131 40.562 99.5837 40.9856 99.4288 41.4856C100.78 42.3043 102.13 43.0447 103.396 43.9082C105.127 45.0891 105.659 46.8751 104.962 48.753C104.094 51.0916 101.757 52.1221 99.4983 51.0634C98.0603 50.3895 96.6977 49.5549 95.5983 48.9546C93.0403 50.8502 90.7583 52.8819 88.1731 54.396C78.7558 59.9115 65.8529 57.8097 58.6366 49.6783C57.8428 48.7839 57.3126 48.7842 56.4182 49.3541C55.3713 50.0213 54.2827 50.6535 53.1429 51.1375C51.1172 51.9978 49.0904 51.2143 48.0516 49.2956C47.0155 47.3819 47.455 45.2111 49.2357 43.9991C50.5863 43.0798 52.0272 42.2931 53.3502 41.4943C52.9604 39.3626 52.5865 37.3183 52.2019 35.1383ZM80.6439 19.9008C80.5235 22.5641 81.3452 25.4918 78.3266 27.3674C81.2807 28.5845 82.4163 30.8256 82.513 33.6045C87.3995 32.9554 90.1947 37.1391 94.1956 38.3048C97.8931 27.9792 89.8762 16.3488 80.6439 15.4256C80.6439 16.8252 80.6439 18.2141 80.6439 19.9008ZM64.3361 19.0691C58.1018 24.3414 56.6696 33.426 59.0073 38.2652C60.9983 37.1332 63.0192 36.0561 64.9644 34.8564C66.6602 33.8104 68.3527 32.9923 70.4882 33.8854C70.3546 30.6364 71.8275 28.5988 74.6459 27.3335C72.7211 26.1589 72.2215 24.4606 72.2994 22.4191C72.39 20.0413 72.3204 17.6574 72.3204 15.1065C69.2327 15.7051 66.7395 17.0533 64.3361 19.0691M71.7193 40.2015C71.217 40.5998 70.7512 41.0588 70.2062 41.3859C67.8369 42.8083 65.4445 44.1923 63.0394 45.6026C70.1607 53.8559 83.7553 53.0435 89.7998 45.5914C88.673 44.9434 87.5157 44.375 86.4637 43.6532C84.0871 42.0228 80.7551 41.5081 80.0434 37.9799C77.4685 39.3641 75.1052 39.3975 72.834 37.8509C72.4951 38.5968 72.1707 39.3106 71.7193 40.202M73.7019 22.9978C73.9802 25.2164 74.9834 26.333 76.614 26.2391C78.1504 26.1507 79.1787 25.0858 79.1886 23.3237C79.2242 16.9972 79.237 10.6698 79.149 4.34428C79.1379 3.56221 78.6648 2.47189 78.0536 2.09436C77.3269 1.64539 76.1577 1.56015 75.2917 1.77224C74.0216 2.0833 73.6915 3.26496 73.6927 4.50626C73.6989 10.5812 73.6952 16.6562 73.7014 22.9978M51.3201 44.3666C49.1049 45.5947 48.404 47.0379 49.2533 48.6222C50.1526 50.2995 51.7562 50.4883 53.9909 49.2025C56.8367 47.5651 59.691 45.9426 62.5405 44.3116C64.8733 42.9763 67.2295 41.6795 69.5278 40.2871C71.2069 39.2698 71.6016 37.7119 70.7053 36.2121C69.9073 34.8769 68.4169 34.5666 66.7851 35.4969C61.6857 38.4044 56.6051 41.345 51.3201 44.3666ZM100.367 43.6569C99.1851 43.0198 97.9868 42.4107 96.8238 41.7404C93.2022 39.6533 89.6038 37.5258 85.9756 35.4503C84.5528 34.6363 83.2612 34.8383 82.314 35.8999C81.0024 37.3699 81.4992 39.18 83.6235 40.4132C86.9367 42.3367 90.2802 44.2079 93.603 46.115C95.6748 47.3041 97.7018 48.5752 99.8066 49.7017C101.233 50.4651 102.736 50.0114 103.48 48.7868C104.257 47.5065 103.908 45.8854 102.61 44.9858C101.957 44.5336 101.245 44.1678 100.367 43.6569ZM86.3958 53.7175C89.1942 52.2918 91.7602 50.5732 93.8238 47.9625C92.9109 47.4535 92.1398 47.0236 91.2808 46.5447C87.1816 50.6463 82.2989 52.9854 76.4738 52.9575C70.6528 52.9297 65.7377 50.6852 61.6953 46.3888C60.8006 46.9144 59.9547 47.4114 58.857 48.0563C59.853 48.9685 60.6509 49.7919 61.5409 50.4997C69.0931 56.5064 77.3257 57.5607 86.3958 53.7175ZM96.1246 29.4411C96.0823 32.0144 96.2899 34.6258 95.9065 37.1473C95.6656 38.7311 95.6841 39.6971 97.2808 40.2438C97.5461 40.3346 97.7886 40.492 98.0489 40.6222C103.314 27.2867 93.3705 12.3083 80.8689 10.7874C80.4508 13.4343 80.466 13.3916 82.8447 14.2372C89.999 16.7806 94.3773 21.7987 96.1246 29.4411ZM67.039 12.1941C54.753 17.8864 51.1505 31.5907 54.9138 40.5082C55.2274 40.3685 55.5332 40.2118 55.8531 40.0933C57.1225 39.6232 57.5454 38.8741 57.0838 37.4832C56.7141 36.3695 56.5893 35.1419 56.5458 33.9579C56.2015 24.5774 62.0372 16.5418 71.0904 13.9538C72.05 13.6794 72.4144 13.2528 72.3092 12.2982C72.252 11.7798 72.2992 11.25 72.2992 10.4029C70.4217 11.0281 68.8306 11.5579 67.0392 12.1941M80.4029 30.7859C78.7017 28.5364 76.2061 27.8881 74.1487 29.1611C72.0056 30.4872 71.2807 33.1418 72.478 35.2787C73.6759 37.4168 76.1951 38.2246 78.3979 37.1769C80.7593 36.0539 81.5919 33.6078 80.4029 30.7859Z" fill="white"/>
<path d="M140.313 20.1254C141.115 21.7442 141.517 23.5463 141.517 25.5316C141.517 27.5169 141.115 29.319 140.313 30.9378C139.51 32.526 138.476 33.7936 137.21 34.7404C134.647 36.6952 131.992 37.6726 129.245 37.6726H123.456V42.8497C123.456 43.5522 123.425 44.0867 123.363 44.4532C123.332 44.7892 123.193 45.1863 122.946 45.6444C122.514 46.4691 121.31 46.8815 119.334 46.8815C117.173 46.8815 115.907 46.3164 115.537 45.1863C115.351 44.667 115.259 43.8729 115.259 42.8039V17.3765C115.259 16.674 115.274 16.1547 115.305 15.8187C115.367 15.4522 115.521 15.0399 115.768 14.5817C116.2 13.7571 117.404 13.3447 119.38 13.3447H129.291C132.008 13.3447 134.647 14.3221 137.21 16.2769C138.476 17.2237 139.51 18.5066 140.313 20.1254H140.313ZM129.291 29.5633C130.217 29.5633 131.128 29.2273 132.023 28.5554C132.918 27.8834 133.366 26.8755 133.366 25.5316C133.366 24.1877 132.918 23.1797 132.023 22.5078C131.128 21.8053 130.202 21.454 129.245 21.454H123.456V29.5633H129.291Z" fill="white"/>
<path d="M143.601 26.8159C143.601 26.1134 143.617 25.5942 143.647 25.2582C143.709 24.8917 143.848 24.4794 144.064 24.0212C144.496 23.2271 145.701 22.83 147.676 22.83C149.158 22.83 150.208 23.0896 150.826 23.6089C151.35 24.0365 151.628 24.6932 151.659 25.579C151.69 25.8844 151.705 26.3273 151.705 26.9076V42.9429C151.705 43.6454 151.674 44.1799 151.613 44.5464C151.582 44.8824 151.443 45.2795 151.196 45.7376C150.795 46.5318 149.606 46.9288 147.63 46.9288C145.685 46.9288 144.496 46.5165 144.064 45.6918C143.848 45.2337 143.709 44.8366 143.647 44.5006C143.616 44.1646 143.601 43.6301 143.601 42.8971L143.601 26.8159ZM151.196 18.3402C150.98 18.7678 150.579 19.0732 149.992 19.2565C149.405 19.4397 148.618 19.5313 147.63 19.5313C146.673 19.5313 145.901 19.4397 145.315 19.2565C144.728 19.0732 144.311 18.7525 144.064 18.2943C143.848 17.8362 143.709 17.4391 143.647 17.1031C143.617 16.7366 143.601 16.2021 143.601 15.4996C143.601 14.7971 143.617 14.2779 143.647 13.9419C143.709 13.5754 143.848 13.1783 144.064 12.7507C144.496 11.926 145.701 11.5137 147.676 11.5137C149.621 11.5137 150.795 11.926 151.196 12.7507C151.443 13.2088 151.582 13.6212 151.613 13.9877C151.675 14.3237 151.705 14.8429 151.705 15.5454C151.705 16.2479 151.675 16.7824 151.613 17.1489C151.582 17.4849 151.443 17.882 151.196 18.3402Z" fill="white"/>
<path d="M155.408 15.4526C155.408 14.7501 155.423 14.2309 155.454 13.8949C155.516 13.5284 155.655 13.116 155.871 12.6579C156.303 11.8332 157.507 11.4209 159.483 11.4209C161.366 11.4209 162.539 11.8332 163.003 12.6579C163.25 13.116 163.388 13.5284 163.419 13.8949C163.481 14.2614 163.512 14.7959 163.512 15.4984V36.7109C163.512 37.8104 163.605 38.5129 163.79 38.8184C163.975 39.0933 164.376 39.2307 164.994 39.2307C165.642 39.2307 166.075 39.2613 166.291 39.3224C166.507 39.3529 166.769 39.4751 167.078 39.6889C167.695 40.086 168.004 41.1703 168.004 42.9418C168.004 44.866 167.695 46.042 167.078 46.4696C166.275 47.0193 164.361 47.111 161.335 46.7444C158.958 46.439 157.414 45.6601 156.704 44.4079C155.84 42.9112 155.408 40.5288 155.408 37.2607V15.4526Z" fill="white"/>
<path d="M169.856 34.8789C169.856 31.2137 171.153 28.1899 173.746 25.8075C176.339 23.4251 179.303 22.2339 182.638 22.2339C185.972 22.2339 188.92 23.4251 191.483 25.8075C194.045 28.1593 195.327 31.1679 195.327 34.8331C195.327 37.3682 194.663 39.6284 193.335 41.6137C192.008 43.5685 190.387 45.0193 188.473 45.9662C186.589 46.8825 184.629 47.3406 182.591 47.3406C180.554 47.3406 178.578 46.8519 176.664 45.8745C174.749 44.8666 173.129 43.4005 171.801 41.4763C170.504 39.5215 169.856 37.3224 169.856 34.8789ZM179.535 38.1776C180.523 38.9106 181.526 39.2771 182.545 39.2771C183.564 39.2771 184.583 38.8953 185.601 38.1318C186.62 37.3682 187.13 36.2381 187.13 34.7414C187.13 33.2448 186.651 32.13 185.694 31.3969C184.737 30.6639 183.703 30.2974 182.591 30.2974C181.48 30.2974 180.446 30.6792 179.488 31.4427C178.531 32.2063 178.053 33.3364 178.053 34.8331C178.053 36.2992 178.547 37.414 179.535 38.1776Z" fill="white"/>
<path d="M198.34 53.4794V26.7233C198.34 26.0208 198.355 25.5016 198.386 25.1656C198.448 24.8296 198.587 24.4478 198.803 24.0202C199.235 23.1955 200.269 22.7832 201.906 22.7832C203.542 22.7832 204.638 22.997 205.194 23.4246C205.78 23.8217 206.12 24.4173 206.213 25.2114C207.386 23.6231 209.223 22.829 211.724 22.829C214.255 22.829 216.648 24.0049 218.902 26.3568C221.155 28.7086 222.282 31.4423 222.282 34.5577C222.282 37.6731 221.155 40.4068 218.902 42.7586C216.679 45.1105 214.301 46.2864 211.77 46.2864C209.238 46.2864 207.401 45.5839 206.259 44.1789V53.4336C206.259 54.1361 206.228 54.6553 206.166 54.9913C206.135 55.3273 205.996 55.7091 205.749 56.1367C205.533 56.5948 205.147 56.9155 204.592 57.0988C204.036 57.2821 203.28 57.3737 202.322 57.3737C201.365 57.3737 200.594 57.2821 200.007 57.0988C199.451 56.9155 199.05 56.6101 198.803 56.1825C198.587 55.7549 198.448 55.3731 198.386 55.0371C198.355 54.7011 198.34 54.1819 198.34 53.4794H198.34ZM207.509 31.9004C206.799 32.7251 206.444 33.6261 206.444 34.6035C206.444 35.5809 206.799 36.4819 207.509 37.3066C208.25 38.1007 209.176 38.4978 210.288 38.4978C211.43 38.4978 212.387 38.1007 213.159 37.3066C213.962 36.5125 214.363 35.6115 214.363 34.6035C214.363 33.5956 213.993 32.6946 213.252 31.9004C212.511 31.0758 211.538 30.6634 210.334 30.6634C209.161 30.6634 208.219 31.0758 207.509 31.9004Z" fill="white"/>
<path d="M225.477 44.7737C224.89 44.4071 224.597 43.8268 224.597 43.0327C224.597 42.2386 225.184 41.0321 226.357 39.4133C226.697 38.894 227.237 38.6344 227.978 38.6344C228.75 38.6344 229.784 39.0162 231.081 39.7798C232.377 40.5128 233.55 40.8794 234.6 40.8794C236.483 40.8794 237.425 40.5128 237.425 39.7798C237.425 39.1995 236.391 38.7719 234.322 38.497C232.377 38.2221 230.448 37.5043 228.534 36.3436C227.638 35.7939 226.897 34.9387 226.311 33.778C225.724 32.5868 225.431 31.1818 225.431 29.563C225.431 24.7372 228.781 22.3242 235.48 22.3242C237.672 22.3242 239.926 22.8435 242.241 23.8819C243.322 24.3706 243.862 24.9815 243.862 25.7145C243.862 26.4476 243.523 27.3486 242.843 28.4176C242.164 29.4866 241.47 30.0212 240.759 30.0212C240.389 30.0212 239.694 29.7921 238.675 29.3339C237.688 28.8758 236.607 28.6467 235.434 28.6467C233.612 28.6467 232.701 28.9827 232.701 29.6546C232.701 30.5709 233.751 31.1665 235.851 31.4414C237.888 31.6552 239.864 32.2356 241.778 33.1824C242.674 33.61 243.415 34.3583 244.001 35.4274C244.619 36.4658 244.927 37.7792 244.927 39.3675C244.927 40.9557 244.619 42.3149 244.001 43.445C243.415 44.5446 242.581 45.3693 241.5 45.919C239.525 46.8659 237.039 47.3393 234.044 47.3393C231.081 47.3393 228.225 46.4841 225.477 44.7737Z" fill="white"/>
</svg>
