<svg width="198" height="58" viewBox="0 0 198 58" fill="none" xmlns="http://www.w3.org/2000/svg">
<path d="M5.20189 35.1383C4.23916 22.8352 12.3132 11.9169 24.2557 9.26634C25.0234 9.09595 25.3674 8.81834 25.3327 7.99726C25.278 6.70257 25.2949 5.40305 25.329 4.10682C25.3874 1.88827 27.0052 0.152238 29.1029 0.0106027C31.2688 -0.135647 33.157 1.24262 33.4857 3.43108C33.6987 4.84891 33.6767 6.31573 33.6224 7.75541C33.5835 8.78397 33.9011 9.19623 34.9422 9.44973C45.1368 11.932 52.031 19.4052 53.6466 29.7871C54.1887 33.2705 53.9127 36.7504 52.8461 40.1395C52.7131 40.562 52.5837 40.9856 52.4288 41.4856C53.7798 42.3043 55.1296 43.0447 56.3956 43.9082C58.1267 45.0891 58.6591 46.8751 57.9621 48.753C57.0942 51.0916 54.7575 52.1221 52.4983 51.0634C51.0603 50.3895 49.6977 49.5549 48.5983 48.9546C46.0403 50.8502 43.7583 52.8819 41.1731 54.396C31.7558 59.9115 18.8529 57.8097 11.6366 49.6783C10.8428 48.7839 10.3126 48.7842 9.41818 49.3541C8.37131 50.0213 7.28274 50.6535 6.14291 51.1375C4.11721 51.9978 2.09041 51.2143 1.0516 49.2956C0.0154597 47.3819 0.455018 45.2111 2.23572 43.9991C3.58632 43.0798 5.02717 42.2931 6.35023 41.4943C5.96037 39.3626 5.58648 37.3183 5.20189 35.1383ZM33.6439 19.9008C33.5235 22.5641 34.3452 25.4918 31.3266 27.3674C34.2807 28.5845 35.4163 30.8256 35.513 33.6045C40.3995 32.9554 43.1947 37.1391 47.1956 38.3048C50.8931 27.9792 42.8762 16.3488 33.6439 15.4256C33.6439 16.8252 33.6439 18.2141 33.6439 19.9008ZM17.3361 19.0691C11.1018 24.3414 9.66956 33.426 12.0073 38.2652C13.9983 37.1332 16.0192 36.0561 17.9644 34.8564C19.6602 33.8104 21.3527 32.9923 23.4882 33.8854C23.3546 30.6364 24.8275 28.5988 27.6459 27.3335C25.7211 26.1589 25.2215 24.4606 25.2994 22.4191C25.39 20.0413 25.3204 17.6574 25.3204 15.1065C22.2327 15.7051 19.7395 17.0533 17.3361 19.0691M24.7193 40.2015C24.217 40.5998 23.7512 41.0588 23.2062 41.3859C20.8369 42.8083 18.4445 44.1923 16.0394 45.6026C23.1607 53.8559 36.7553 53.0435 42.7998 45.5914C41.673 44.9434 40.5157 44.375 39.4637 43.6532C37.0871 42.0228 33.7551 41.5081 33.0434 37.9799C30.4685 39.3641 28.1052 39.3975 25.834 37.8509C25.4951 38.5968 25.1707 39.3106 24.7193 40.202M26.7019 22.9978C26.9802 25.2164 27.9834 26.333 29.614 26.2391C31.1504 26.1507 32.1787 25.0858 32.1886 23.3237C32.2242 16.9972 32.237 10.6698 32.149 4.34428C32.1379 3.56221 31.6648 2.47189 31.0536 2.09436C30.3269 1.64539 29.1577 1.56015 28.2917 1.77224C27.0216 2.0833 26.6915 3.26496 26.6927 4.50626C26.6989 10.5812 26.6952 16.6562 26.7014 22.9978M4.32015 44.3666C2.10494 45.5947 1.40402 47.0379 2.25334 48.6222C3.15257 50.2995 4.75622 50.4883 6.99094 49.2025C9.83669 47.5651 12.691 45.9426 15.5405 44.3116C17.8733 42.9763 20.2295 41.6795 22.5278 40.2871C24.2069 39.2698 24.6016 37.7119 23.7053 36.2121C22.9073 34.8769 21.4169 34.5666 19.7851 35.4969C14.6857 38.4044 9.60514 41.345 4.32015 44.3666ZM53.3672 43.6569C52.1851 43.0198 50.9868 42.4107 49.8238 41.7404C46.2022 39.6533 42.6038 37.5258 38.9756 35.4503C37.5528 34.6363 36.2612 34.8383 35.314 35.8999C34.0024 37.3699 34.4992 39.18 36.6235 40.4132C39.9367 42.3367 43.2802 44.2079 46.603 46.115C48.6748 47.3041 50.7018 48.5752 52.8066 49.7017C54.233 50.4651 55.7364 50.0114 56.48 48.7868C57.2575 47.5065 56.9075 45.8854 55.6095 44.9858C54.9571 44.5336 54.2448 44.1678 53.3672 43.6569ZM39.3958 53.7175C42.1942 52.2918 44.7602 50.5732 46.8238 47.9625C45.9109 47.4535 45.1398 47.0236 44.2808 46.5447C40.1816 50.6463 35.2989 52.9854 29.4738 52.9575C23.6528 52.9297 18.7377 50.6852 14.6953 46.3888C13.8006 46.9144 12.9547 47.4114 11.857 48.0563C12.853 48.9685 13.6509 49.7919 14.5409 50.4997C22.0931 56.5064 30.3257 57.5607 39.3958 53.7175ZM49.1246 29.4411C49.0823 32.0144 49.2899 34.6258 48.9065 37.1473C48.6656 38.7311 48.6841 39.6971 50.2808 40.2438C50.5461 40.3346 50.7886 40.492 51.0489 40.6222C56.3144 27.2867 46.3705 12.3083 33.8689 10.7874C33.4508 13.4343 33.466 13.3916 35.8447 14.2372C42.999 16.7806 47.3773 21.7987 49.1246 29.4411ZM20.039 12.1941C7.75298 17.8864 4.15047 31.5907 7.91385 40.5082C8.22737 40.3685 8.53316 40.2118 8.85311 40.0933C10.1225 39.6232 10.5454 38.8741 10.0838 37.4832C9.71414 36.3695 9.58928 35.1419 9.54581 33.9579C9.20145 24.5774 15.0372 16.5418 24.0904 13.9538C25.05 13.6794 25.4144 13.2528 25.3092 12.2982C25.252 11.7798 25.2992 11.25 25.2992 10.4029C23.4217 11.0281 21.8306 11.5579 20.0392 12.1941M33.4029 30.7859C31.7017 28.5364 29.2061 27.8881 27.1487 29.1611C25.0056 30.4872 24.2807 33.1418 25.478 35.2787C26.6759 37.4168 29.1951 38.2246 31.3979 37.1769C33.7593 36.0539 34.5919 33.6078 33.4029 30.7859Z" fill="white"/>
<path d="M93.3127 20.1254C94.1154 21.7442 94.5167 23.5463 94.5167 25.5316C94.5167 27.5169 94.1154 29.319 93.3127 30.9378C92.51 32.526 91.4757 33.7936 90.2099 34.7404C87.6474 36.6952 84.9923 37.6726 82.2445 37.6726H76.4557V42.8497C76.4557 43.5522 76.4249 44.0867 76.3631 44.4532C76.3322 44.7892 76.1933 45.1863 75.9463 45.6444C75.5141 46.4691 74.31 46.8815 72.3341 46.8815C70.1729 46.8815 68.9071 46.3164 68.5366 45.1863C68.3514 44.667 68.2588 43.8729 68.2588 42.8039V17.3765C68.2588 16.674 68.2742 16.1547 68.3051 15.8187C68.3668 15.4522 68.5212 15.0399 68.7682 14.5817C69.2004 13.7571 70.4045 13.3447 72.3804 13.3447H82.2908C85.0076 13.3447 87.6473 14.3221 90.2098 16.2769C91.4756 17.2237 92.5099 18.5066 93.3126 20.1254H93.3127ZM82.2909 29.5633C83.2171 29.5633 84.1278 29.2273 85.0231 28.5554C85.9185 27.8834 86.3661 26.8755 86.3661 25.5316C86.3661 24.1877 85.9185 23.1797 85.0231 22.5078C84.1278 21.8053 83.2016 21.454 82.2445 21.454H76.4557V29.5633H82.2909Z" fill="white"/>
<path d="M96.6012 26.8159C96.6012 26.1134 96.6166 25.5942 96.6474 25.2582C96.7092 24.8917 96.8481 24.4794 97.0642 24.0212C97.4964 23.2271 98.7005 22.83 100.676 22.83C102.158 22.83 103.208 23.0896 103.826 23.6089C104.35 24.0365 104.628 24.6932 104.659 25.579C104.69 25.8844 104.705 26.3273 104.705 26.9076V42.9429C104.705 43.6454 104.674 44.1799 104.613 44.5464C104.582 44.8824 104.443 45.2795 104.196 45.7376C103.795 46.5318 102.606 46.9288 100.63 46.9288C98.685 46.9288 97.4964 46.5165 97.0641 45.6918C96.848 45.2337 96.7091 44.8366 96.6473 44.5006C96.6165 44.1646 96.6011 43.6301 96.6011 42.8971L96.6012 26.8159ZM104.196 18.3402C103.98 18.7678 103.579 19.0732 102.992 19.2565C102.405 19.4397 101.618 19.5313 100.63 19.5313C99.6731 19.5313 98.9012 19.4397 98.3147 19.2565C97.728 19.0732 97.3112 18.7525 97.0643 18.2943C96.8481 17.8362 96.7092 17.4391 96.6475 17.1031C96.6166 16.7366 96.6012 16.2021 96.6012 15.4996C96.6012 14.7971 96.6166 14.2779 96.6475 13.9419C96.7092 13.5754 96.8482 13.1783 97.0643 12.7507C97.4965 11.926 98.7006 11.5137 100.676 11.5137C102.621 11.5137 103.795 11.926 104.196 12.7507C104.443 13.2088 104.582 13.6212 104.613 13.9877C104.675 14.3237 104.705 14.8429 104.705 15.5454C104.705 16.2479 104.675 16.7824 104.613 17.1489C104.582 17.4849 104.443 17.882 104.196 18.3402Z" fill="white"/>
<path d="M108.408 15.4526C108.408 14.7501 108.423 14.2309 108.454 13.8949C108.516 13.5284 108.655 13.116 108.871 12.6579C109.303 11.8332 110.507 11.4209 112.483 11.4209C114.366 11.4209 115.539 11.8332 116.003 12.6579C116.25 13.116 116.388 13.5284 116.419 13.8949C116.481 14.2614 116.512 14.7959 116.512 15.4984V36.7109C116.512 37.8104 116.605 38.5129 116.79 38.8184C116.975 39.0933 117.376 39.2307 117.994 39.2307C118.642 39.2307 119.075 39.2613 119.291 39.3224C119.507 39.3529 119.769 39.4751 120.078 39.6889C120.695 40.086 121.004 41.1703 121.004 42.9418C121.004 44.866 120.695 46.042 120.078 46.4696C119.275 47.0193 117.361 47.111 114.335 46.7444C111.958 46.439 110.414 45.6601 109.704 44.4079C108.84 42.9112 108.408 40.5288 108.408 37.2607V15.4526Z" fill="white"/>
<path d="M122.856 34.8789C122.856 31.2137 124.153 28.1899 126.746 25.8075C129.339 23.4251 132.303 22.2339 135.638 22.2339C138.972 22.2339 141.92 23.4251 144.483 25.8075C147.045 28.1593 148.327 31.1679 148.327 34.8331C148.327 37.3682 147.663 39.6284 146.335 41.6137C145.008 43.5685 143.387 45.0193 141.473 45.9662C139.589 46.8825 137.629 47.3406 135.591 47.3406C133.554 47.3406 131.578 46.8519 129.664 45.8745C127.749 44.8666 126.129 43.4005 124.801 41.4763C123.504 39.5215 122.856 37.3224 122.856 34.8789ZM132.535 38.1776C133.523 38.9106 134.526 39.2771 135.545 39.2771C136.564 39.2771 137.583 38.8953 138.601 38.1318C139.62 37.3682 140.13 36.2381 140.13 34.7414C140.13 33.2448 139.651 32.13 138.694 31.3969C137.737 30.6639 136.703 30.2974 135.591 30.2974C134.48 30.2974 133.446 30.6792 132.488 31.4427C131.531 32.2063 131.053 33.3364 131.053 34.8331C131.053 36.2992 131.547 37.414 132.535 38.1776Z" fill="white"/>
<path d="M151.34 53.4794V26.7233C151.34 26.0208 151.355 25.5016 151.386 25.1656C151.448 24.8296 151.587 24.4478 151.803 24.0202C152.235 23.1955 153.269 22.7832 154.906 22.7832C156.542 22.7832 157.638 22.997 158.194 23.4246C158.78 23.8217 159.12 24.4173 159.213 25.2114C160.386 23.6231 162.223 22.829 164.724 22.829C167.255 22.829 169.648 24.0049 171.902 26.3568C174.155 28.7086 175.282 31.4423 175.282 34.5577C175.282 37.6731 174.155 40.4068 171.902 42.7586C169.679 45.1105 167.301 46.2864 164.77 46.2864C162.238 46.2864 160.401 45.5839 159.259 44.1789V53.4336C159.259 54.1361 159.228 54.6553 159.166 54.9913C159.135 55.3273 158.996 55.7091 158.749 56.1367C158.533 56.5948 158.147 56.9155 157.592 57.0988C157.036 57.2821 156.28 57.3737 155.322 57.3737C154.365 57.3737 153.594 57.2821 153.007 57.0988C152.451 56.9155 152.05 56.6101 151.803 56.1825C151.587 55.7549 151.448 55.3731 151.386 55.0371C151.355 54.7011 151.34 54.1819 151.34 53.4794H151.34ZM160.509 31.9004C159.799 32.7251 159.444 33.6261 159.444 34.6035C159.444 35.5809 159.799 36.4819 160.509 37.3066C161.25 38.1007 162.176 38.4978 163.288 38.4978C164.43 38.4978 165.387 38.1007 166.159 37.3066C166.962 36.5125 167.363 35.6115 167.363 34.6035C167.363 33.5956 166.993 32.6946 166.252 31.9004C165.511 31.0758 164.538 30.6634 163.334 30.6634C162.161 30.6634 161.219 31.0758 160.509 31.9004Z" fill="white"/>
<path d="M178.477 44.7737C177.89 44.4071 177.597 43.8268 177.597 43.0327C177.597 42.2386 178.184 41.0321 179.357 39.4133C179.697 38.894 180.237 38.6344 180.978 38.6344C181.75 38.6344 182.784 39.0162 184.081 39.7798C185.377 40.5128 186.55 40.8794 187.6 40.8794C189.483 40.8794 190.425 40.5128 190.425 39.7798C190.425 39.1995 189.391 38.7719 187.322 38.497C185.377 38.2221 183.448 37.5043 181.534 36.3436C180.638 35.7939 179.897 34.9387 179.311 33.778C178.724 32.5868 178.431 31.1818 178.431 29.563C178.431 24.7372 181.781 22.3242 188.48 22.3242C190.672 22.3242 192.926 22.8435 195.241 23.8819C196.322 24.3706 196.862 24.9815 196.862 25.7145C196.862 26.4476 196.523 27.3486 195.843 28.4176C195.164 29.4866 194.47 30.0212 193.759 30.0212C193.389 30.0212 192.694 29.7921 191.675 29.3339C190.688 28.8758 189.607 28.6467 188.434 28.6467C186.612 28.6467 185.701 28.9827 185.701 29.6546C185.701 30.5709 186.751 31.1665 188.851 31.4414C190.888 31.6552 192.864 32.2356 194.778 33.1824C195.674 33.61 196.415 34.3583 197.001 35.4274C197.619 36.4658 197.927 37.7792 197.927 39.3675C197.927 40.9557 197.619 42.3149 197.001 43.445C196.415 44.5446 195.581 45.3693 194.5 45.919C192.525 46.8659 190.039 47.3393 187.044 47.3393C184.081 47.3393 181.225 46.4841 178.477 44.7737Z" fill="white"/>
</svg>
