<svg width="130" height="47" viewBox="0 0 130 47" fill="none" xmlns="http://www.w3.org/2000/svg">
<path d="M25.3127 9.12538C26.1154 10.7442 26.5167 12.5463 26.5167 14.5316C26.5167 16.5169 26.1154 18.319 25.3127 19.9378C24.51 21.526 23.4757 22.7936 22.2099 23.7404C19.6474 25.6952 16.9923 26.6726 14.2445 26.6726H8.45574V31.8497C8.45574 32.5522 8.42486 33.0867 8.36309 33.4532C8.33224 33.7892 8.19331 34.1863 7.9463 34.6444C7.51406 35.4691 6.30999 35.8815 4.33409 35.8815C2.17294 35.8815 0.907127 35.3164 0.536644 34.1863C0.35141 33.667 0.258789 32.8729 0.258789 31.8039V6.37646C0.258789 5.67396 0.274214 5.15472 0.30506 4.81874C0.366835 4.45223 0.521202 4.03989 0.76816 3.58173C1.20039 2.75706 2.40446 2.34473 4.38036 2.34473H14.2908C17.0076 2.34473 19.6473 3.32211 22.2098 5.2769C23.4756 6.22375 24.5099 7.50658 25.3126 9.12538H25.3127ZM14.2909 18.5633C15.2171 18.5633 16.1278 18.2273 17.0231 17.5554C17.9185 16.8834 18.3661 15.8755 18.3661 14.5316C18.3661 13.1877 17.9185 12.1797 17.0231 11.5078C16.1278 10.8053 15.2016 10.454 14.2445 10.454H8.45574V18.5633H14.2909Z" fill="white"/>
<path d="M28.6012 15.8159C28.6012 15.1134 28.6166 14.5942 28.6474 14.2582C28.7092 13.8917 28.8481 13.4794 29.0642 13.0212C29.4964 12.2271 30.7005 11.83 32.6764 11.83C34.1584 11.83 35.208 12.0896 35.8255 12.6089C36.3504 13.0365 36.6282 13.6932 36.6591 14.579C36.6899 14.8844 36.7054 15.3273 36.7054 15.9076V31.9429C36.7054 32.6454 36.6745 33.1799 36.6127 33.5464C36.5819 33.8824 36.4429 34.2795 36.1959 34.7376C35.7946 35.5318 34.6059 35.9288 32.63 35.9288C30.685 35.9288 29.4964 35.5165 29.0641 34.6918C28.848 34.2337 28.7091 33.8366 28.6473 33.5006C28.6165 33.1646 28.6011 32.6301 28.6011 31.8971L28.6012 15.8159ZM36.196 7.34015C35.9799 7.76776 35.5786 8.0732 34.992 8.25645C34.4054 8.43971 33.6181 8.53133 32.6302 8.53133C31.6731 8.53133 30.9012 8.43971 30.3147 8.25645C29.728 8.0732 29.3112 7.75248 29.0643 7.29433C28.8481 6.83617 28.7092 6.43911 28.6475 6.10313C28.6166 5.73661 28.6012 5.2021 28.6012 4.4996C28.6012 3.7971 28.6166 3.27786 28.6475 2.94188C28.7092 2.57537 28.8482 2.1783 29.0643 1.75069C29.4965 0.926012 30.7006 0.513672 32.6765 0.513672C34.6215 0.513672 35.7947 0.926012 36.196 1.75069C36.443 2.20884 36.582 2.62118 36.6128 2.9877C36.6746 3.32368 36.7055 3.84291 36.7055 4.54542C36.7055 5.24792 36.6746 5.78243 36.6128 6.14895C36.582 6.48492 36.443 6.882 36.196 7.34015Z" fill="white"/>
<path d="M40.4077 4.45264C40.4077 3.75014 40.4231 3.23089 40.454 2.89491C40.5158 2.52839 40.6547 2.11605 40.8708 1.6579C41.303 0.833228 42.5071 0.420898 44.483 0.420898C46.3663 0.420898 47.5395 0.833228 48.0026 1.6579C48.2496 2.11605 48.3885 2.52839 48.4193 2.89491C48.4811 3.26144 48.512 3.79594 48.512 4.49844V25.7109C48.512 26.8104 48.6046 27.5129 48.7899 27.8184C48.9751 28.0933 49.3765 28.2307 49.9939 28.2307C50.6423 28.2307 51.0745 28.2613 51.2906 28.3224C51.5067 28.3529 51.7692 28.4751 52.0779 28.6889C52.6954 29.086 53.0041 30.1703 53.0041 31.9418C53.0041 33.866 52.6954 35.042 52.0779 35.4696C51.2752 36.0193 49.361 36.111 46.3354 35.7444C43.9582 35.439 42.4145 34.6601 41.7044 33.4079C40.8399 31.9112 40.4077 29.5288 40.4077 26.2607V4.45264Z" fill="white"/>
<path d="M54.856 23.8789C54.856 20.2137 56.1526 17.1899 58.746 14.8075C61.3394 12.4251 64.3033 11.2339 67.6376 11.2339C70.9719 11.2339 73.9203 12.4251 76.4828 14.8075C79.0453 17.1593 80.3266 20.1679 80.3266 23.8331C80.3266 26.3682 79.6628 28.6284 78.3353 30.6137C77.0077 32.5685 75.3868 34.0193 73.4727 34.9662C71.5894 35.8825 69.6289 36.3406 67.5913 36.3406C65.5536 36.3406 63.5777 35.8519 61.6636 34.8745C59.7494 33.8666 58.1285 32.4005 56.801 30.4763C55.5043 28.5215 54.856 26.3224 54.856 23.8789ZM64.5348 27.1776C65.5227 27.9106 66.5261 28.2771 67.545 28.2771C68.5638 28.2771 69.5826 27.8953 70.6014 27.1318C71.6203 26.3682 72.1297 25.2381 72.1297 23.7414C72.1297 22.2448 71.6511 21.13 70.6941 20.3969C69.737 19.6639 68.7027 19.2974 67.5913 19.2974C66.4798 19.2974 65.4456 19.6792 64.4885 20.4427C63.5314 21.2063 63.0529 22.3364 63.0529 23.8331C63.0529 25.2992 63.5468 26.414 64.5348 27.1776Z" fill="white"/>
<path d="M83.3399 42.4794V15.7233C83.3399 15.0208 83.3553 14.5016 83.3862 14.1656C83.4479 13.8296 83.5869 13.4478 83.803 13.0202C84.2352 12.1955 85.2695 11.7832 86.9057 11.7832C88.542 11.7832 89.6381 11.997 90.1938 12.4246C90.7804 12.8217 91.12 13.4173 91.2126 14.2114C92.3858 12.6231 94.2228 11.829 96.7235 11.829C99.2551 11.829 101.648 13.0049 103.902 15.3568C106.155 17.7086 107.282 20.4423 107.282 23.5577C107.282 26.6731 106.155 29.4068 103.902 31.7586C101.679 34.1105 99.3015 35.2864 96.7698 35.2864C94.2382 35.2864 92.4012 34.5839 91.2589 33.1789V42.4336C91.2589 43.1361 91.228 43.6553 91.1662 43.9913C91.1354 44.3273 90.9965 44.7091 90.7494 45.1367C90.5333 45.5948 90.1474 45.9155 89.5917 46.0988C89.036 46.2821 88.2796 46.3737 87.3225 46.3737C86.3654 46.3737 85.5936 46.2821 85.007 46.0988C84.4512 45.9155 84.0499 45.6101 83.8029 45.1825C83.5868 44.7549 83.4479 44.3731 83.3861 44.0371C83.3553 43.7011 83.3398 43.1819 83.3398 42.4794H83.3399ZM92.5093 20.9004C91.7992 21.7251 91.4442 22.6261 91.4442 23.6035C91.4442 24.5809 91.7992 25.4819 92.5093 26.3066C93.2503 27.1007 94.1765 27.4978 95.2879 27.4978C96.4303 27.4978 97.3873 27.1007 98.1592 26.3066C98.9619 25.5125 99.3632 24.6115 99.3632 23.6035C99.3632 22.5956 98.9927 21.6946 98.2518 20.9004C97.5108 20.0758 96.5383 19.6634 95.3342 19.6634C94.1611 19.6634 93.2194 20.0758 92.5093 20.9004Z" fill="white"/>
<path d="M110.477 33.7737C109.89 33.4071 109.597 32.8268 109.597 32.0327C109.597 31.2386 110.184 30.0321 111.357 28.4133C111.697 27.894 112.237 27.6344 112.978 27.6344C113.75 27.6344 114.784 28.0162 116.081 28.7798C117.377 29.5128 118.55 29.8794 119.6 29.8794C121.483 29.8794 122.425 29.5128 122.425 28.7798C122.425 28.1995 121.391 27.7719 119.322 27.497C117.377 27.2221 115.448 26.5043 113.534 25.3436C112.638 24.7939 111.897 23.9387 111.311 22.778C110.724 21.5868 110.431 20.1818 110.431 18.563C110.431 13.7372 113.781 11.3242 120.48 11.3242C122.672 11.3242 124.926 11.8435 127.241 12.8819C128.322 13.3706 128.862 13.9815 128.862 14.7145C128.862 15.4476 128.523 16.3486 127.843 17.4176C127.164 18.4866 126.47 19.0212 125.759 19.0212C125.389 19.0212 124.694 18.7921 123.675 18.3339C122.688 17.8758 121.607 17.6467 120.434 17.6467C118.612 17.6467 117.701 17.9827 117.701 18.6546C117.701 19.5709 118.751 20.1665 120.851 20.4414C122.888 20.6552 124.864 21.2356 126.778 22.1824C127.674 22.61 128.415 23.3583 129.001 24.4274C129.619 25.4658 129.927 26.7792 129.927 28.3675C129.927 29.9557 129.619 31.3149 129.001 32.445C128.415 33.5446 127.581 34.3693 126.5 34.919C124.525 35.8659 122.039 36.3393 119.044 36.3393C116.081 36.3393 113.225 35.4841 110.477 33.7737Z" fill="white"/>
</svg>
