<svg width="49" height="49" viewBox="0 0 49 49" fill="none" xmlns="http://www.w3.org/2000/svg">
<path d="M38.4984 30.5004C38.8984 30.1004 39.3738 29.9004 39.9244 29.9004C40.4751 29.9004 40.9498 30.1004 41.3484 30.5004L44.4984 33.7004C44.8984 34.1004 45.0984 34.5671 45.0984 35.1004C45.0984 35.6337 44.8984 36.1004 44.4984 36.5004C44.0984 36.9004 43.6318 37.1004 43.0984 37.1004C42.5651 37.1004 42.0984 36.9004 41.6984 36.5004L38.4984 33.3504C38.0984 32.9504 37.8984 32.4757 37.8984 31.9264C37.8984 31.3771 38.0984 30.9017 38.4984 30.5004ZM40.4984 6.50039C40.8984 6.90039 41.0984 7.37572 41.0984 7.92639C41.0984 8.47706 40.8984 8.95172 40.4984 9.35039L37.3484 12.5004C36.9484 12.9004 36.4738 13.1004 35.9244 13.1004C35.3751 13.1004 34.8998 12.9004 34.4984 12.5004C34.0971 12.1004 33.8971 11.6257 33.8984 11.0764C33.8998 10.5271 34.0998 10.0517 34.4984 9.65039L37.6984 6.50039C38.0984 6.10039 38.5651 5.90039 39.0984 5.90039C39.6318 5.90039 40.0984 6.10039 40.4984 6.50039ZM8.49844 6.50039C8.89844 6.10039 9.37378 5.90039 9.92444 5.90039C10.4751 5.90039 10.9498 6.10039 11.3484 6.50039L14.4984 9.70039C14.8984 10.1004 15.0984 10.5671 15.0984 11.1004C15.0984 11.6337 14.8984 12.1004 14.4984 12.5004C14.0984 12.9004 13.6238 13.1004 13.0744 13.1004C12.5251 13.1004 12.0498 12.9004 11.6484 12.5004L8.49844 9.35039C8.09844 8.95039 7.89844 8.47572 7.89844 7.92639C7.89844 7.37706 8.09844 6.90172 8.49844 6.50039ZM10.4984 30.5004C10.8984 30.9004 11.0984 31.3757 11.0984 31.9264C11.0984 32.4771 10.8984 32.9517 10.4984 33.3504L7.34844 36.5004C6.94844 36.9004 6.47378 37.1004 5.92444 37.1004C5.37511 37.1004 4.89978 36.9004 4.49844 36.5004C4.09711 36.1004 3.89711 35.6257 3.89844 35.0764C3.89978 34.5271 4.09978 34.0517 4.49844 33.6504L7.69844 30.5004C8.09844 30.1004 8.56511 29.9004 9.09844 29.9004C9.63178 29.9004 10.0984 30.1004 10.4984 30.5004ZM18.1984 34.1504L24.4984 30.3504L30.7984 34.2004L29.1484 27.0004L34.6984 22.2004L27.3984 21.5504L24.4984 14.7504L21.5984 21.5004L14.2984 22.1504L19.8484 27.0004L18.1984 34.1504ZM24.4984 35.0504L16.1984 40.0504C15.8318 40.2837 15.4484 40.3837 15.0484 40.3504C14.6484 40.3171 14.2984 40.1837 13.9984 39.9504C13.6984 39.7171 13.4651 39.4257 13.2984 39.0764C13.1318 38.7271 13.0984 38.3351 13.1984 37.9004L15.3984 28.4504L8.04844 22.1004C7.71511 21.8004 7.50711 21.4584 7.42444 21.0744C7.34178 20.6904 7.36644 20.3157 7.49844 19.9504C7.63044 19.5851 7.83044 19.2851 8.09844 19.0504C8.36644 18.8157 8.73311 18.6657 9.19844 18.6004L18.8984 17.7504L22.6484 8.85039C22.8151 8.45039 23.0738 8.15039 23.4244 7.95039C23.7751 7.75039 24.1331 7.65039 24.4984 7.65039C24.8638 7.65039 25.2218 7.75039 25.5724 7.95039C25.9231 8.15039 26.1818 8.45039 26.3484 8.85039L30.0984 17.7504L39.7984 18.6004C40.2651 18.6671 40.6318 18.8171 40.8984 19.0504C41.1651 19.2837 41.3651 19.5837 41.4984 19.9504C41.6318 20.3171 41.6571 20.6924 41.5744 21.0764C41.4918 21.4604 41.2831 21.8017 40.9484 22.1004L33.5984 28.4504L35.7984 37.9004C35.8984 38.3337 35.8651 38.7257 35.6984 39.0764C35.5318 39.4271 35.2984 39.7184 34.9984 39.9504C34.6984 40.1824 34.3484 40.3157 33.9484 40.3504C33.5484 40.3851 33.1651 40.2851 32.7984 40.0504L24.4984 35.0504Z" fill="#38BDF8"/>
</svg>
